<svg height="423pt" viewBox="0 -10 423.8945 423" width="423pt" xmlns="http://www.w3.org/2000/svg"><path d="m109.386719 109.675781h253.386719v232.105469h-253.386719zm0 0" fill="#ea3457"/><path d="m362.769531 348.605469h-253.382812c-3.769531 0-6.828125-3.054688-6.828125-6.824219v-232.105469c0-3.773437 3.058594-6.828125 6.828125-6.828125h253.382812c3.769531 0 6.828125 3.054688 6.828125 6.828125v232.105469c0 3.769531-3.058594 6.824219-6.828125 6.824219zm-246.554687-13.652344h239.730468v-218.453125h-239.730468zm0 0" fill="#ea3457"/><path d="m73.1875 162.140625 84.464844 24.132813 48.261718 42.230468 12.066407 60.332032-30.164063 18.097656-36.199218 78.429687-144.792969-162.890625zm0 0" fill="#fff"/><path d="m151.617188 392.191406c-1.933594 0-3.796876-.824218-5.105469-2.292968l-144.789063-162.890626c-2.484375-2.796874-2.253906-7.074218.511719-9.585937l66.359375-60.328125c1.75-1.597656 4.179688-2.164062 6.46875-1.515625l84.464844 24.132813c.964844.277343 1.859375.761718 2.617187 1.425781l48.265625 42.230469c1.128906.988281 1.902344 2.324218 2.195313 3.796874l12.066406 60.332032c.566406 2.828125-.707031 5.710937-3.179687 7.191406l-28.363282 17.019531-35.3125 76.519531c-.964844 2.09375-2.917968 3.554688-5.199218 3.890626-.332032.050781-.667969.074218-1 .074218zm-135.203126-169.210937 133.375 150.054687 31.824219-68.960937c.578125-1.246094 1.511719-2.289063 2.6875-2.992188l26.042969-15.625-10.671875-53.339843-45.367187-39.699219-79.339844-22.664063zm0 0" fill="#602f75"/><path d="m417.066406 171.808594v-51.894532l-114.625 36.195313-12.066406 30.164063 6.035156 24.132812-18.101562 48.261719 138.757812 72.398437v-118.199218" fill="#fff"/><path d="m417.066406 337.894531c-1.082031 0-2.167968-.257812-3.15625-.773437l-138.757812-72.398438c-3.058594-1.59375-4.445313-5.21875-3.234375-8.449218l17.351562-46.269532-5.515625-22.074218c-.34375-1.390626-.246094-2.859376.285156-4.191407l12.0625-30.164062c.757813-1.894531 2.332032-3.355469 4.28125-3.972657l114.628907-36.199218c2.074219-.65625 4.332031-.28125 6.09375 1.003906 1.75 1.285156 2.789062 3.328125 2.789062 5.507812v51.898438c0 3.769531-3.058593 6.824219-6.828125 6.824219-3.769531 0-6.824218-3.054688-6.824218-6.824219v-42.585938l-102.664063 32.421876-10.042969 25.113281 5.496094 21.996093c.335938 1.339844.253906 2.75-.230469 4.046876l-15.976562 42.609374 123.417969 64.390626v-106.933594c0-3.773438 3.054687-6.828125 6.824218-6.828125 3.769532 0 6.828125 3.054687 6.828125 6.828125v118.199218c0 2.386719-1.246093 4.597657-3.285156 5.835938-1.089844.65625-2.316406.988281-3.542969.988281zm0 0" fill="#602f75"/><path d="m211.945312 7.273438c-33.929687 0-61.4375 27.507812-61.4375 61.441406 0 33.929687 61.4375 95.574218 61.4375 95.574218s61.441407-61.644531 61.441407-95.574218c0-33.933594-27.507813-61.441406-61.441407-61.441406zm0 88.597656c-14.996093 0-27.15625-12.160156-27.15625-27.15625 0-15 12.160157-27.15625 27.15625-27.15625 15 0 27.15625 12.15625 27.15625 27.15625 0 14.996094-12.15625 27.15625-27.15625 27.15625zm0 0" fill="#ffe600"/><path d="m211.945312 171.113281c-1.8125 0-3.550781-.722656-4.832031-2.007812-6.492187-6.511719-63.433593-64.667969-63.433593-100.390625 0-37.644532 30.625-68.269532 68.265624-68.269532 37.644532 0 68.269532 30.625 68.269532 68.269532 0 35.722656-56.941406 93.878906-63.433594 100.390625-1.28125 1.285156-3.019531 2.007812-4.835938 2.007812zm0-157.011719c-30.113281 0-54.613281 24.5-54.613281 54.613282 0 23.316406 35.8125 65.925781 54.613281 85.765625 18.800782-19.847657 54.613282-62.472657 54.613282-85.765625 0-30.113282-24.496094-54.613282-54.613282-54.613282zm0 88.59375c-18.738281 0-33.980468-15.242187-33.980468-33.980468 0-18.738282 15.242187-33.984375 33.980468-33.984375 18.742188 0 33.984376 15.246093 33.984376 33.984375 0 18.738281-15.242188 33.980468-33.984376 33.980468zm0-54.3125c-11.207031 0-20.328124 9.121094-20.328124 20.332032 0 11.207031 9.121093 20.328125 20.328124 20.328125 11.210938 0 20.332032-9.121094 20.332032-20.328125 0-11.210938-9.121094-20.332032-20.332032-20.332032zm0 0" fill="#602f75"/><path d="m328 225.726562c-33.929688 0-61.441406 27.507813-61.441406 61.441407 0 33.929687 61.441406 95.574219 61.441406 95.574219s61.441406-61.644532 61.441406-95.574219c0-33.933594-27.507812-61.441407-61.441406-61.441407zm0 88.597657c-14.996094 0-27.15625-12.160157-27.15625-27.15625 0-15 12.160156-27.15625 27.15625-27.15625 15 0 27.15625 12.15625 27.15625 27.15625 0 14.996093-12.15625 27.15625-27.15625 27.15625zm0 0" fill="#00e7ff"/><path d="m328 389.566406c-1.8125 0-3.554688-.722656-4.832031-2.007812-6.496094-6.511719-63.433594-64.667969-63.433594-100.390625 0-37.644531 30.621094-68.265625 68.265625-68.265625s68.265625 30.621094 68.265625 68.265625c0 35.722656-56.9375 93.878906-63.433594 100.390625-1.277343 1.285156-3.015625 2.007812-4.832031 2.007812zm0-157.011718c-30.113281 0-54.613281 24.5-54.613281 54.613281 0 23.316406 35.8125 65.925781 54.613281 85.765625 18.796875-19.847656 54.613281-62.472656 54.613281-85.765625 0-30.113281-24.5-54.613281-54.613281-54.613281zm0 88.597656c-18.738281 0-33.984375-15.246094-33.984375-33.984375s15.246094-33.984375 33.984375-33.984375 33.984375 15.246094 33.984375 33.984375-15.246094 33.984375-33.984375 33.984375zm0-54.316406c-11.210938 0-20.328125 9.121093-20.328125 20.332031 0 11.207031 9.117187 20.328125 20.328125 20.328125s20.332031-9.121094 20.332031-20.328125c0-11.210938-9.121093-20.332031-20.332031-20.332031zm0 0" fill="#602f75"/><path d="m74.273438 239.378906c-33.929688 0-61.4375 27.507813-61.4375 61.441406 0 33.933594 61.4375 95.574219 61.4375 95.574219s61.441406-61.640625 61.441406-95.574219c0-33.933593-27.507813-61.441406-61.441406-61.441406zm0 88.597656c-14.996094 0-27.15625-12.15625-27.15625-27.15625 0-14.996093 12.160156-27.15625 27.15625-27.15625 15 0 27.160156 12.160157 27.160156 27.15625 0 15-12.160156 27.15625-27.160156 27.15625zm0 0" fill="#eaeaea"/><path d="m74.277344 403.21875c-1.8125 0-3.554688-.722656-4.832032-2.003906-6.496093-6.515625-63.433593-64.671875-63.433593-100.394532 0-37.644531 30.621093-68.265624 68.265625-68.265624 37.644531 0 68.265625 30.621093 68.265625 68.265624 0 35.722657-56.9375 93.878907-63.433594 100.394532-1.277344 1.28125-3.019531 2.003906-4.832031 2.003906zm0-157.011719c-30.113282 0-54.613282 24.5-54.613282 54.613281 0 23.316407 35.8125 65.925782 54.613282 85.765626 18.796875-19.84375 54.613281-62.472657 54.613281-85.765626 0-30.113281-24.5-54.613281-54.613281-54.613281zm0 88.597657c-18.738282 0-33.984375-15.246094-33.984375-33.984376 0-18.738281 15.246093-33.984374 33.984375-33.984374 18.738281 0 33.984375 15.246093 33.984375 33.984374 0 18.738282-15.246094 33.984376-33.984375 33.984376zm0-54.3125c-11.210938 0-20.332032 9.117187-20.332032 20.328124 0 11.210938 9.121094 20.332032 20.332032 20.332032 11.210937 0 20.328125-9.121094 20.328125-20.332032 0-11.210937-9.117188-20.328124-20.328125-20.328124zm0 0" fill="#602f75"/></svg>