<svg height="423pt" viewBox="0 -10 423.8945 423" width="423pt" xmlns="http://www.w3.org/2000/svg"><path d="m109.386719 109.675781h253.386719v232.105469h-253.386719zm0 0" fill="#94c1ff" fill-rule="evenodd"/><g fill="#0e65e5"><path d="m362.769531 348.605469h-253.382812c-3.769531 0-6.828125-3.054688-6.828125-6.824219v-232.105469c0-3.773437 3.058594-6.828125 6.828125-6.828125h253.382812c3.769531 0 6.828125 3.054688 6.828125 6.828125v232.105469c0 3.769531-3.058594 6.824219-6.828125 6.824219zm-246.554687-13.652344h239.730468v-218.453125h-239.730468zm0 0"/><path d="m362.132812 109.675781h-252.585937l13.652344-34.136719h225.28125zm0 0"/><path d="m362.132812 116.5h-252.585937c-2.265625 0-4.382813-1.121094-5.652344-3s-1.527343-4.257812-.6875-6.363281l13.65625-34.132813c1.039063-2.589844 3.546875-4.289062 6.335938-4.289062h225.28125c2.789062 0 5.300781 1.699218 6.339843 4.289062l13.652344 34.132813c.839844 2.105469.585938 4.488281-.683594 6.367187-1.269531 1.875-3.390624 2.996094-5.65625 2.996094zm-242.503906-13.652344h232.421875l-8.195312-20.480468h-216.03125zm0 0"/></g><path d="m73.1875 162.140625 84.464844 24.132813 48.261718 42.230468 12.066407 60.332032-30.164063 18.097656-36.199218 78.429687-144.792969-162.890625zm0 0" fill="#288eea"/><path d="m151.617188 392.191406c-1.933594 0-3.796876-.824218-5.105469-2.292968l-144.789063-162.890626c-2.484375-2.796874-2.253906-7.074218.511719-9.585937l66.359375-60.328125c1.75-1.597656 4.179688-2.164062 6.46875-1.515625l84.464844 24.132813c.964844.277343 1.859375.761718 2.617187 1.425781l48.265625 42.230469c1.128906.988281 1.902344 2.324218 2.195313 3.796874l12.066406 60.332032c.566406 2.828125-.707031 5.710937-3.179687 7.191406l-28.363282 17.019531-35.3125 76.519531c-.964844 2.09375-2.917968 3.554688-5.199218 3.890626-.332032.050781-.667969.074218-1 .074218zm-135.203126-169.210937 133.375 150.054687 31.824219-68.960937c.578125-1.246094 1.511719-2.289063 2.6875-2.992188l26.042969-15.625-10.671875-53.339843-45.367187-39.699219-79.339844-22.664063zm0 0" fill="#0e65e5"/><path d="m417.066406 119.914062-114.625 36.195313-12.066406 30.164063 6.035156 24.132812-18.101562 48.261719 138.757812 72.398437zm0 0" fill="#288eea"/><path d="m417.066406 337.894531c-1.082031 0-2.167968-.257812-3.15625-.773437l-138.757812-72.398438c-3.058594-1.59375-4.445313-5.21875-3.234375-8.449218l17.351562-46.269532-5.515625-22.074218c-.34375-1.390626-.246094-2.859376.285156-4.191407l12.0625-30.164062c.757813-1.894531 2.332032-3.355469 4.28125-3.972657l114.628907-36.199218c2.074219-.65625 4.332031-.28125 6.09375 1.003906 1.75 1.285156 2.789062 3.328125 2.789062 5.507812v211.15625c0 2.386719-1.246093 4.597657-3.285156 5.835938-1.089844.65625-2.316406.988281-3.542969.988281zm-130.242187-82.484375 123.414062 64.394532v-190.582032l-102.660156 32.425782-10.046875 25.113281 5.5 21.992187c.335938 1.339844.25 2.753906-.230469 4.050782zm0 0" fill="#0e65e5"/><path d="m211.945312 7.273438c-33.929687 0-61.4375 27.507812-61.4375 61.441406 0 33.929687 61.4375 95.574218 61.4375 95.574218s61.441407-61.644531 61.441407-95.574218c0-33.933594-27.507813-61.441406-61.441407-61.441406zm0 88.597656c-14.996093 0-27.15625-12.160156-27.15625-27.15625 0-15 12.160157-27.15625 27.15625-27.15625 15 0 27.15625 12.15625 27.15625 27.15625 0 14.996094-12.15625 27.15625-27.15625 27.15625zm0 0" fill="#d7e9ff"/><path d="m211.945312 171.113281c-1.8125 0-3.550781-.722656-4.832031-2.007812-6.492187-6.511719-63.433593-64.667969-63.433593-100.390625 0-37.644532 30.625-68.269532 68.265624-68.269532 37.644532 0 68.269532 30.625 68.269532 68.269532 0 35.722656-56.941406 93.878906-63.433594 100.390625-1.28125 1.285156-3.019531 2.007812-4.835938 2.007812zm0-157.011719c-30.113281 0-54.613281 24.5-54.613281 54.613282 0 23.316406 35.8125 65.925781 54.613281 85.765625 18.800782-19.847657 54.613282-62.472657 54.613282-85.765625 0-30.113282-24.496094-54.613282-54.613282-54.613282zm0 88.59375c-18.738281 0-33.980468-15.242187-33.980468-33.980468 0-18.738282 15.242187-33.984375 33.980468-33.984375 18.742188 0 33.984376 15.246093 33.984376 33.984375 0 18.738281-15.242188 33.980468-33.984376 33.980468zm0-54.3125c-11.207031 0-20.328124 9.121094-20.328124 20.332032 0 11.207031 9.121093 20.328125 20.328124 20.328125 11.210938 0 20.332032-9.121094 20.332032-20.328125 0-11.210938-9.121094-20.332032-20.332032-20.332032zm0 0" fill="#0e65e5"/><path d="m328 225.726562c-33.929688 0-61.441406 27.507813-61.441406 61.441407 0 33.929687 61.441406 95.574219 61.441406 95.574219s61.441406-61.644532 61.441406-95.574219c0-33.933594-27.507812-61.441407-61.441406-61.441407zm27.015625 64.195313c-1.519531 14.921875-14.851563 25.785156-29.773437 24.261719-14.921876-1.523438-25.78125-14.855469-24.257813-29.777344s14.851563-25.78125 29.773437-24.257812c14.921876 1.523437 25.78125 14.855468 24.257813 29.773437zm0 0" fill="#d7e9ff"/><path d="m328 389.566406c-1.8125 0-3.554688-.722656-4.832031-2.007812-6.496094-6.511719-63.433594-64.667969-63.433594-100.390625 0-37.644531 30.621094-68.265625 68.265625-68.265625s68.265625 30.621094 68.265625 68.265625c0 35.722656-56.9375 93.878906-63.433594 100.390625-1.277343 1.285156-3.015625 2.007812-4.832031 2.007812zm0-157.011718c-30.113281 0-54.613281 24.5-54.613281 54.613281 0 23.316406 35.8125 65.925781 54.613281 85.765625 18.796875-19.847656 54.613281-62.472656 54.613281-85.765625 0-30.113281-24.5-54.613281-54.613281-54.613281zm.0625 88.597656c-1.167969 0-2.335938-.058594-3.511719-.175782-9.03125-.921874-17.164062-5.304687-22.898437-12.339843-5.730469-7.039063-8.382813-15.886719-7.460938-24.917969s5.304688-17.164062 12.339844-22.898438c7.035156-5.730468 15.859375-8.375 24.917969-7.457031 9.03125.917969 17.164062 5.300781 22.898437 12.335938 5.730469 7.039062 8.382813 15.890625 7.457032 24.917969-.917969 9.03125-5.300782 17.160156-12.339844 22.898437-6.117188 4.984375-13.609375 7.636719-21.402344 7.636719zm-.101562-54.316406c-4.660157 0-9.140626 1.585937-12.800782 4.570312-4.210937 3.429688-6.832031 8.292969-7.386718 13.699219-.546876 5.402343 1.035156 10.695312 4.464843 14.902343 3.429688 4.210938 8.296875 6.832032 13.699219 7.386719 5.394531.542969 10.695312-1.039062 14.902344-4.46875 4.207031-3.429687 6.832031-8.292969 7.386718-13.695312.550782-5.402344-1.03125-10.695313-4.464843-14.902344-3.429688-4.210937-8.292969-6.832031-13.699219-7.386719-.703125-.070312-1.40625-.105468-2.101562-.105468zm0 0" fill="#0e65e5"/><path d="m74.273438 239.378906c-33.929688 0-61.4375 27.507813-61.4375 61.441406 0 33.933594 61.4375 95.574219 61.4375 95.574219s61.441406-61.640625 61.441406-95.574219c0-33.933593-27.507813-61.441406-61.441406-61.441406zm0 88.597656c-14.996094 0-27.15625-12.15625-27.15625-27.15625 0-14.996093 12.160156-27.15625 27.15625-27.15625 15 0 27.160156 12.160157 27.160156 27.15625 0 15-12.160156 27.15625-27.160156 27.15625zm0 0" fill="#d7e9ff"/><path d="m74.277344 403.21875c-1.8125 0-3.554688-.722656-4.832032-2.003906-6.496093-6.515625-63.433593-64.671875-63.433593-100.394532 0-37.644531 30.621093-68.265624 68.265625-68.265624 37.644531 0 68.265625 30.621093 68.265625 68.265624 0 35.722657-56.9375 93.878907-63.433594 100.394532-1.277344 1.28125-3.019531 2.003906-4.832031 2.003906zm0-157.011719c-30.113282 0-54.613282 24.5-54.613282 54.613281 0 23.316407 35.8125 65.925782 54.613282 85.765626 18.796875-19.84375 54.613281-62.472657 54.613281-85.765626 0-30.113281-24.5-54.613281-54.613281-54.613281zm0 88.597657c-18.738282 0-33.984375-15.246094-33.984375-33.984376 0-18.738281 15.246093-33.984374 33.984375-33.984374 18.738281 0 33.984375 15.246093 33.984375 33.984374 0 18.738282-15.246094 33.984376-33.984375 33.984376zm0-54.3125c-11.210938 0-20.332032 9.117187-20.332032 20.328124 0 11.210938 9.121094 20.332032 20.332032 20.332032 11.210937 0 20.328125-9.121094 20.328125-20.332032 0-11.210937-9.117188-20.328124-20.328125-20.328124zm0 0" fill="#0e65e5"/><path d="m314.347656 136.980469c-3.769531 0-6.828125-3.054688-6.828125-6.828125v-27.304688c0-3.769531 3.058594-6.828125 6.828125-6.828125 3.769532 0 6.824219 3.058594 6.824219 6.828125v27.304688c0 3.773437-3.054687 6.828125-6.824219 6.828125zm0 0" fill="#fff"/><path d="m328 123.328125h-27.304688c-3.773437 0-6.828124-3.058594-6.828124-6.828125s3.054687-6.824219 6.828124-6.824219h27.304688c3.769531 0 6.828125 3.054688 6.828125 6.824219s-3.058594 6.828125-6.828125 6.828125zm0 0" fill="#fff"/><path d="m130.027344 164.289062c-3.769532 0-6.828125-3.058593-6.828125-6.828124v-27.308594c0-3.769532 3.058593-6.824219 6.828125-6.824219h20.480468c3.769532 0 6.824219 3.054687 6.824219 6.824219 0 3.773437-3.054687 6.828125-6.824219 6.828125h-13.652343v20.480469c0 3.769531-3.058594 6.828124-6.828125 6.828124zm0 0" fill="#fff"/></svg>